<?xml version="1.0" encoding="UTF-8" standalone="no"?>
<svg xmlns="http://www.w3.org/2000/svg" height="100" width="100" version="1.1">
  <path
     d="m 52.304143,0.87789 c 0.263165,1.96598 -1.287939,5.18409 2.352405,6.05239 14.52578,1.20793 28.44256,8.4798 32.73924,18.48843 5.63026,11.611143 4.01213,24.797553 -4.61829,35.541923 -7.42212,8.34728 -22.29441,12.93359 -36.250742,11.45194 -10.785736,-0.60031 -22.252888,-3.54814 -29.31318,-9.68057 15.195196,-3.00452 30.39035,-6.00915 45.585582,-9.01359 -20.933053,0 -41.866105,0 -62.799158,0 C 0,69.145603 0,84.572803 0,100 3.48365,89.360723 6.968921,78.721693 10.453351,68.082533 c 12.692674,9.08691 32.257035,12.30267 49.914997,10.52969 15.15393,-1.75108 28.88454,-9.12058 34.1776,-19.25363 6.409402,-11.27283 7.201922,-24.12593 2.2071,-35.737263 C 93.025578,15.00784 84.301948,7.34211 72.284588,3.7289 65.994498,1.69345 59.161332,0.60522 52.304143,0 c 0,0.29263 0,0.58526 0,0.87789 z"/>
</svg>
