<?xml version="1.0" encoding="UTF-8" standalone="no"?>
<svg xmlns="http://www.w3.org/2000/svg" height="100" width="100" version="1.1">
  <path
     d="m 47.695858,0.87789 c -0.263165,1.96598 1.287939,5.18409 -2.352405,6.05239 -14.52578,1.20793 -28.44256,8.4798 -32.73924,18.48843 -5.6302604,11.611143 -4.0121304,24.797553 4.61829,35.541923 7.42212,8.34728 22.29441,12.93359 36.250742,11.45194 10.785736,-0.60031 22.252888,-3.54814 29.31318,-9.68057 -15.195196,-3.00452 -30.39035,-6.00915 -45.585582,-9.01359 20.933053,0 41.866105,0 62.799157,0 0,15.42719 0,30.85439 0,46.281587 C 96.516351,89.360723 93.03108,78.721693 89.54665,68.082533 76.853976,77.169443 57.289615,80.385203 39.631653,78.612223 24.477723,76.861143 10.747113,69.491643 5.4540526,59.358593 -0.95534939,48.085763 -1.7478694,35.232663 3.2469526,23.62133 6.9744226,15.00784 15.698053,7.34211 27.715413,3.7289 34.005503,1.69345 40.838669,0.60522 47.695858,0 c 0,0.29263 0,0.58526 0,0.87789 z" />
</svg>
