<?xml version="1.0" encoding="UTF-8" standalone="no"?>
<svg xmlns="http://www.w3.org/2000/svg" height="100" width="100" version="1.1">
  <path
     style="stroke:none;stroke-width:1"
     d="M 11.174757,100 7,97.494782 36.223301,7.933194 34.970874,6.6805843 37.893204,4.1753651 42.067961,-2.7625e-7 43.529127,0.41753626 42.902913,6.0542795 l 0.208738,3.3402923 -1.669903,0.2087683 -1.252427,3.1315239 2.504854,0.835073 0.626214,-1.461378 6.888349,3.340293 14.820389,9.60334 11.480582,7.306889 13.985437,5.845512 2.504855,0.626305 -2.296117,5.636743 -8.975728,26.931107 -5.427184,5.845511 L 63.7767,72.442589 49.373787,62.630481 35.805825,53.862213 30.378641,51.983299 31.42233,49.686848 28.917476,48.643006 Z M 75.883496,72.651357 78.597088,69.93737 88.19903,41.544885 74.422331,35.699374 62.73301,27.76618 48.538835,18.162839 l -3.548543,-1.670146 -9.81068,32.56785 2.296116,0.835073 13.985437,9.394572 13.985438,9.603341 z M 32.883495,45.929019 41.650486,16.492693 39.145631,15.448852 29.961165,45.302714 Z" />
</svg>
