<?xml version="1.0" encoding="UTF-8" standalone="no"?>
<svg xmlns="http://www.w3.org/2000/svg" height="100" width="100" version="1.1">
  <path
     style="stroke:none;stroke-width:1"
     d="m 50.000049,1.6e-7 q 3.038625,0 6.008251,0.3282877 L 57.803904,12.606696 q 4.627035,0.853567 9.046925,2.823386 l 8.701682,-8.6671031 q 5.248618,2.9546826 9.668508,7.1569141 l -5.801105,10.242941 q 3.245868,3.28297 5.524862,7.222609 L 96.339791,29.349976 Q 98.895027,34.865405 100,40.906113 l -10.220946,4.53052 q 0.276194,2.298107 0.276194,4.53052 0,2.232459 -0.276194,4.530566 L 100,59.093887 q -1.104973,5.97506 -3.660209,11.490489 L 84.944776,68.548909 q -2.278994,3.939592 -5.524862,7.288257 l 5.801105,10.177293 q -4.41989,4.202231 -9.668508,7.222562 l -8.701682,-8.667103 q -4.41989,1.904125 -9.046925,2.823386 L 56.0083,99.606017 Q 53.038674,100 50.000049,100 46.961326,100 43.99175,99.606017 L 42.196145,87.393304 q -4.627084,-0.919261 -9.046974,-2.823386 l -8.701632,8.667103 Q 19.19892,90.21669 14.77903,86.014459 L 20.580135,75.837166 Q 17.334267,72.554149 15.055273,68.548909 L 3.6602582,70.584376 Q 1.1049728,65.068947 4.00996e-7,59.093887 L 10.221044,54.497719 q -0.2762923,-2.298107 -0.2762923,-4.530566 0,-2.232413 0.2762923,-4.53052 L 4.00996e-7,40.906113 Q 1.1049728,34.865405 3.6602582,29.349976 l 11.3950148,2.035467 q 2.278994,-3.939639 5.524862,-7.288257 L 14.77903,13.919893 q 4.41989,-4.2022315 9.668509,-7.1569141 l 8.701632,8.6014081 q 4.41989,-1.904124 9.046974,-2.757691 L 43.99175,0.32828786 Q 46.961326,1.6e-7 50.000049,1.6e-7 Z m 0,21.07680784 q -12.569085,0 -21.477913,8.502983 -8.908827,8.502936 -8.908827,20.420186 0,11.917296 8.908827,20.387408 8.908828,8.470112 21.477913,8.470112 12.569036,0 21.477864,-8.470112 8.908876,-8.470112 8.908876,-20.387408 0,-11.91725 -8.908876,-20.420186 -8.908828,-8.502983 -21.477864,-8.502983 z m 10.704383,28.890345 q 0,4.202232 -3.142247,7.189785 -3.142246,2.987507 -7.562136,2.987507 -4.419889,0 -7.562185,-2.987507 -3.142247,-2.987553 -3.142247,-7.189785 0,-4.202232 3.142247,-7.189739 3.142296,-2.987507 7.562185,-2.987507 4.41989,0 7.562136,2.987507 3.142247,2.987507 3.142247,7.189739 z" />
</svg>
