<?xml version="1.0" encoding="UTF-8" standalone="no"?>
<svg
   xmlns="http://www.w3.org/2000/svg"
   height="248.3437"
   width="218.8125"
   version="1.1">
  <path
     style="stroke:none"
     d="m 218.8125,178.0313 h -18.7031 v 70.3124 H 18.7031 V 178.0313 H 0 V 124.5937 H 18.7031 V 66.9375 H 102.375 V 55.9687 Q 92.9531,53.5781 86.8359,45.9844 80.7188,38.3906 80.7188,28.4063 80.7188,16.875 89.2969,8.4375 97.875,0 109.4062,0 q 11.9532,0 20.3204,8.2266 8.3672,8.2265 8.3672,20.1797 0,9.9843 -6.1172,17.7187 -6.1172,7.7344 -15.5391,9.9844 v 10.8281 h 83.6719 v 57.6562 h 18.7031 z M 126.2812,28.4063 q 0,-7.0313 -4.9218,-11.8126 -4.9219,-4.7812 -11.9532,-4.7812 -6.6093,0 -11.7421,4.9922 -5.1329,4.9922 -5.1329,11.6016 0,6.6093 5.1329,11.6015 Q 102.7969,45 109.4062,45 q 7.0313,0 11.9532,-4.7813 4.9218,-4.7812 4.9218,-11.8124 z M 207,166.2187 V 136.4063 H 188.2969 V 78.75 H 30.5156 v 57.6563 H 11.8125 v 29.8124 h 18.7031 v 70.3126 h 157.7813 v -70.3126 z m -33.6094,-38.3906 q 0,10.2656 -7.1015,17.4375 -7.1016,7.1719 -17.3672,7.1719 -10.4063,0 -17.5078,-6.8906 -7.1016,-6.8906 -7.1016,-17.2969 0,-10.8281 6.8906,-17.8594 6.8907,-7.0312 17.7188,-7.0312 10.2656,0 17.3672,7.1015 7.1015,7.1016 7.1015,17.3672 z m -78.1875,0 q 0,10.2656 -7.1719,17.4375 -7.1718,7.1719 -17.2968,7.1719 -10.4063,0 -17.8594,-7.0312 -7.4531,-7.0313 -7.4531,-17.5782 0,-9.8437 7.5234,-17.1562 7.5235,-7.3125 17.3672,-7.3125 10.4063,0 17.6484,7.0312 7.2422,7.0313 7.2422,17.4375 z m 70.0313,67.7813 q 0,8.1562 -6.2578,13.5703 -6.2578,5.414 -14.5547,5.414 H 74.3906 q -8.2968,0 -14.3437,-5.3437 -6.4688,-5.4844 -6.4688,-13.6406 0,-8.1563 6.4688,-13.6407 6.0469,-5.3437 14.3437,-5.3437 h 70.0313 q 8.2969,0 14.5547,5.4141 6.2578,5.414 6.2578,13.5703 z m -3.6563,-67.7813 q 0,-5.3437 -3.6562,-9 -3.6563,-3.6562 -9,-3.6562 -12.7969,0 -12.7969,13.0781 0,12.375 12.7969,12.375 5.3437,0 9,-3.7266 3.6562,-3.7265 3.6562,-9.0703 z m -78.1875,0 q 0,-5.4844 -3.7968,-9.0703 -3.7969,-3.5859 -9.2813,-3.5859 -5.0625,0 -9.0703,3.7968 -4.0078,3.7969 -4.0078,8.8594 0,5.4844 3.9375,9.1406 3.9375,3.6563 9.5625,3.6563 5.2031,0 8.9297,-3.7266 3.7265,-3.7265 3.7265,-9.0703 z m 70.0313,67.7813 q 0,-7.1719 -9,-7.1719 H 74.3906 q -9,0 -9,7.1719 0,7.1719 9,7.1719 h 70.0313 q 9,0 9,-7.1719 z" />
</svg>
