<?xml version="1.0" encoding="UTF-8" standalone="no"?>
<svg xmlns="http://www.w3.org/2000/svg" height="100" width="100" version="1.1">
  <path
     style="stroke:none;stroke-width:1"
     d="M 2.5e-8,74.999997 V 67.896172 H 5.4761905 q 1.3095026,0 2.7976296,-0.546448 1.4880846,-0.546448 2.3809519,-1.502756 0.892826,-0.95626 1.24999,-1.639345 -1.666667,-2.595604 -2.857143,-5.601068 -1.1904762,-3.005465 -1.7857354,-6.967238 -0.595217,-3.961724 -0.595217,-8.333309 0,-4.918032 1.0714074,-9.016393 1.0714498,-4.098361 3.333333,-6.694013 2.261926,-2.595604 5.59526,-2.595604 3.333333,0 5.595259,2.595604 2.261883,2.595652 3.333333,6.694013 1.071407,4.098361 1.071407,9.016393 0,4.371585 -0.595216,8.333309 -0.59526,3.961773 -1.785736,6.967238 -1.190476,3.005464 -2.857143,5.601068 0.357164,0.683085 1.24999,1.639345 0.892867,0.956308 2.380952,1.502756 1.488127,0.546448 2.79763,0.546448 h 10.952381 q 1.309502,0 2.797629,-0.546448 1.488085,-0.546448 2.380953,-1.502756 0.892825,-0.95626 1.249989,-1.639345 Q 43.571428,61.612019 42.380952,58.606555 41.190476,55.60109 40.595217,51.639317 40,47.677593 40,43.306008 q 0,-4.918032 1.071407,-9.016393 1.07145,-4.098361 3.333333,-6.694013 2.261926,-2.595604 5.59526,-2.595604 3.333333,0 5.595259,2.595604 2.261883,2.595652 3.333333,6.694013 Q 60,38.387976 60,43.306008 q 0,4.371585 -0.595217,8.333309 -0.59526,3.961773 -1.785736,6.967238 -1.190476,3.005464 -2.857143,5.601068 0.357164,0.683085 1.24999,1.639345 0.892867,0.956308 2.380952,1.502756 1.488127,0.546448 2.79763,0.546448 h 10.952381 q 1.309502,0 2.797629,-0.546448 1.488085,-0.546448 2.380953,-1.502756 0.892825,-0.95626 1.249989,-1.639345 -1.666667,-2.595604 -2.857143,-5.601068 -1.190476,-3.005465 -1.785735,-6.967238 -0.595217,-3.961724 -0.595217,-8.333309 0,-4.918032 1.071407,-9.016393 1.07145,-4.098361 3.333333,-6.694013 2.261926,-2.595604 5.59526,-2.595604 3.333333,0 5.595259,2.595604 2.261884,2.595652 3.333333,6.694013 1.071408,4.098361 1.071408,9.016393 0,4.371585 -0.595217,8.333309 -0.59526,3.961773 -1.785736,6.967238 -1.190476,3.005464 -2.857143,5.601068 0.357164,0.683085 1.24999,1.639345 0.892868,0.956308 2.380952,1.502756 1.488127,0.546448 2.79763,0.546448 h 5.47619 v 7.103825 h -6.904762 q -5.714285,0 -9.761904,-4.644808 -4.047619,4.644808 -9.761905,4.644808 H 59.761904 q -5.714285,0 -9.761904,-4.644808 -4.047619,4.644808 -9.761905,4.644808 H 26.428571 q -5.714285,0 -9.761904,-4.644808 -4.047619,4.644808 -9.7619051,4.644808 z" />
</svg>
